<?xml version="1.0" encoding="utf-8"?>
<!-- Generator: Adobe Illustrator 26.0.1, SVG Export Plug-In . SVG Version: 6.00 Build 0)  -->
<svg version="1.1" xmlns="http://www.w3.org/2000/svg" xmlns:xlink="http://www.w3.org/1999/xlink" x="0px" y="0px"
	 viewBox="0 0 250 100" style="enable-background:new 0 0 250 100;" xml:space="preserve">
<style type="text/css">
	.st0{fill:#FFFFFF;}
	.st1{opacity:0.23;}
	.st2{fill:#00BE5F;}
	.st3{fill:#23C3FF;}
	.st4{fill:#2819FF;}
</style>
<g id="Lager_1_mall">
</g>
<g id="Lager_2_ny">
</g>
<g id="Lager_2_ny_kopia">
	<g>
		<rect x="73.08" y="37" class="st2" width="11" height="43.5"/>
	</g>
	<g>
		<rect x="114.08" y="37" class="st3" width="11" height="43.5"/>
	</g>
	<g>
		<rect x="147.08" y="59" class="st3" width="11" height="21.5"/>
	</g>
	<g>
		<rect x="180.08" y="59" class="st2" width="11" height="21.5"/>
	</g>
	<g>
		<rect x="200.08" y="63" class="st4" width="11" height="17.5"/>
	</g>
	<g>
		<rect x="200.08" y="46" class="st3" width="11" height="17.5"/>
	</g>
	<g>
		<rect x="200.08" y="37" class="st2" width="11" height="9.5"/>
	</g>
	<g>
		<rect x="93.13" y="55" class="st4" width="11" height="25.5"/>
	</g>
	<g>
		<rect x="93.13" y="38" class="st3" width="11" height="17"/>
	</g>
	<g>
		<path class="st4" d="M169,48c6.07,0,11,4.93,11,11h11c0-12.15-9.85-22-22-22s-22,9.85-22,22h11C158,52.93,162.93,48,169,48z"/>
	</g>
	<g>
		<rect x="93.13" y="22" class="st2" width="11" height="16.5"/>
	</g>
	<g>
		<path class="st2" d="M205.5,19c-4.14,0-7.5,3.36-7.5,7.5s3.36,7.5,7.5,7.5s7.5-3.36,7.5-7.5S209.64,19,205.5,19L205.5,19z"/>
	</g>
	<g>
		<path class="st3" d="M69.69,52.48l7.95-7.76c-3.84-4.77-9.62-7.9-16.14-8.19v11.03C64.92,47.86,67.9,49.75,69.69,52.48z"/>
		<path class="st3" d="M82.5,58.41c-0.02-5.19-1.84-9.95-4.86-13.7l-7.95,7.76c1.13,1.72,1.8,3.77,1.81,5.98
			c0.02,5.74-4.38,10.48-10,10.99v11.03C73.22,79.95,82.55,70.26,82.5,58.41z"/>
		<path class="st3" d="M60.54,69.5c-2.33,0.01-4.49-0.71-6.27-1.95l-7.95,7.76c3.85,3.25,8.83,5.2,14.26,5.18
			c0.31,0,0.61-0.01,0.91-0.03V69.45C61.18,69.48,60.87,69.5,60.54,69.5z"/>
		<path class="st4" d="M49.5,58.54c-0.02-6.07,4.89-11.02,10.96-11.04c0.35,0,0.7,0.02,1.04,0.05V36.52
			c-0.36-0.02-0.72-0.02-1.09-0.02c-12.15,0.05-21.96,9.94-21.91,22.09c0.03,6.72,3.06,12.71,7.82,16.73l7.95-7.76
			C51.41,65.58,49.52,62.28,49.5,58.54z"/>
	</g>
	<g>
		<path class="st2" d="M113.96,58.91l11,0.04c0.02-6.07,4.98-10.98,11.04-10.96c0.01-1.73,0.02-4.97,0.04-11
			C123.89,36.95,114,46.76,113.96,58.91z"/>
		<path class="st3" d="M136.04,37c-0.02,6.03-0.04,9.27-0.04,11c6.07,0.02,10.98,4.98,10.96,11.04l11,0.04
			C158,46.94,148.19,37.05,136.04,37z"/>
	</g>
</g>
</svg>
