<?xml version="1.0" encoding="utf-8"?>
<!-- Generator: Adobe Illustrator 26.0.1, SVG Export Plug-In . SVG Version: 6.00 Build 0)  -->
<svg version="1.1" xmlns="http://www.w3.org/2000/svg" xmlns:xlink="http://www.w3.org/1999/xlink" x="0px" y="0px"
	 viewBox="0 0 40 40" style="enable-background:new 0 0 40 40;" xml:space="preserve">
<style type="text/css">
	.st0{fill:#870AA0;}
	.st1{fill:#FFFFFF;}
	.st2{fill:none;}
</style>
<g id="Lager_1">
	<circle class="st0" cx="20" cy="20" r="19.3"/>
</g>
<g id="Lager_2">
	<g>
		<path class="st1" d="M19.8,27.1c-3.9,0-7.1-3.2-7.1-7.1s3.2-7.1,7.1-7.1c3.9,0,7.1,3.2,7.1,7.1S23.7,27.1,19.8,27.1z M19.8,13.4
			c-3.6,0-6.6,3-6.6,6.6s3,6.6,6.6,6.6c3.6,0,6.6-3,6.6-6.6S23.4,13.4,19.8,13.4z"/>
	</g>
	<g>
		<g>
			<path class="st2" d="M18.2,12c-3.3,0.3-6.1,2.9-6.4,6.3c0,0.2,0,0.4,0,0.6l7.5,0.7L18.2,12z"/>
		</g>
		<g>
			<path class="st1" d="M11.7,18.3c0.3-3.4,3.1-6.1,6.4-6.3l-0.1-0.5c-3.6,0.3-6.5,3.1-6.9,6.8c0,0.2,0,0.4,0,0.6l0.5,0
				C11.7,18.7,11.7,18.5,11.7,18.3z"/>
		</g>
	</g>
	<g>
		<polygon class="st1" points="23.7,14.5 23.4,14.2 26.8,10.3 27.2,10.6 		"/>
	</g>
	<g>
		<rect x="19.8" y="26.8" class="st1" width="0.5" height="4.8"/>
	</g>
	<g>
		<rect x="18.3" y="29.4" class="st1" width="3.3" height="0.5"/>
	</g>
	<g>
		<rect x="26.9" y="10.2" class="st1" width="0.5" height="2.5"/>
	</g>
	<g>
		<rect x="24.8" y="10.1" class="st1" width="2.5" height="0.5"/>
	</g>
</g>
</svg>
