<?xml version="1.0" encoding="utf-8"?>
<!-- Generator: Adobe Illustrator 26.0.1, SVG Export Plug-In . SVG Version: 6.00 Build 0)  -->
<svg version="1.1" xmlns="http://www.w3.org/2000/svg" xmlns:xlink="http://www.w3.org/1999/xlink" x="0px" y="0px"
	 viewBox="0 0 40 40" style="enable-background:new 0 0 40 40;" xml:space="preserve">
<style type="text/css">
	.st0{fill:#870AA0;}
	.st1{fill:#FFFFFF;}
</style>
<g id="Lager_1">
	<circle class="st0" cx="20" cy="20" r="19.3"/>
</g>
<g id="Lager_2">
	<g>
		<g>
			<g>
			</g>
			<g>
				<path class="st1" d="M20,8.7c-2.5,0-4.8,0.8-6.7,2.2l0.4,0.3c1.8-1.3,4-2.1,6.3-2.1c6,0,10.8,4.8,10.8,10.8S26,30.8,20,30.8
					S9.2,26,9.2,20c0-1.5,0.3-2.8,0.8-4.1l-0.4-0.4C9,16.9,8.7,18.4,8.7,20c0,6.2,5.1,11.3,11.3,11.3S31.3,26.2,31.3,20
					S26.2,8.7,20,8.7z"/>
			</g>
			<g>
				<g>
					<polygon class="st1" points="14.1,8.9 13.6,8.8 13.2,10.8 13.7,10.8 					"/>
				</g>
				<g>
					<polygon class="st1" points="13.7,10.8 13.6,11.3 13.1,11.2 13.2,10.8 13.2,10.8 13.1,11.1 13.1,11.3 15.5,11.6 15.6,11.1 
											"/>
				</g>
				<g>
					<polygon class="st1" points="13.6,11.3 13.7,10.8 13.2,10.8 13.1,11.2 					"/>
				</g>
			</g>
		</g>
	</g>
	<g>
		<path class="st1" d="M19.9,20.2c-0.3-0.1-0.5-0.2-0.8-0.3s-0.5-0.3-0.7-0.5c-0.2-0.2-0.4-0.4-0.5-0.7c-0.1-0.3-0.2-0.6-0.2-0.9
			c0-0.3,0.1-0.7,0.2-0.9s0.3-0.5,0.5-0.7c0.2-0.2,0.5-0.3,0.7-0.5c0.3-0.1,0.6-0.2,0.9-0.2v-0.9h0.6v0.9c0.2,0,0.4,0,0.6,0.1
			c0.2,0,0.4,0.1,0.6,0.2c0.2,0.1,0.4,0.2,0.6,0.3c0.2,0.1,0.3,0.3,0.5,0.4L22,17c-0.2-0.3-0.4-0.5-0.7-0.6
			c-0.3-0.1-0.6-0.2-0.9-0.2v3.3c0.3,0.1,0.6,0.2,0.9,0.4c0.3,0.1,0.6,0.3,0.8,0.5c0.2,0.2,0.4,0.4,0.6,0.7c0.1,0.3,0.2,0.6,0.2,1
			c0,0.3-0.1,0.6-0.2,0.9c-0.1,0.3-0.3,0.5-0.5,0.7c-0.2,0.2-0.5,0.4-0.8,0.5c-0.3,0.1-0.6,0.2-1,0.2v0.9h-0.6v-0.9
			c-0.5,0-1-0.1-1.5-0.4c-0.4-0.2-0.8-0.5-1.1-0.9l0.7-0.5c0.1,0.2,0.2,0.3,0.4,0.5c0.2,0.1,0.3,0.2,0.5,0.3
			c0.2,0.1,0.3,0.2,0.5,0.2s0.3,0.1,0.4,0.1V20.2z M19.9,16.2c-0.4,0-0.8,0.2-1.1,0.4c-0.3,0.3-0.4,0.6-0.4,1.1c0,0.4,0.1,0.8,0.4,1
			c0.3,0.2,0.6,0.4,1.1,0.5V16.2z M20.5,23.6c0.2,0,0.4,0,0.5-0.1c0.2-0.1,0.4-0.2,0.5-0.3s0.3-0.3,0.4-0.5C22,22.6,22,22.3,22,22
			c0-0.4-0.1-0.8-0.4-1c-0.3-0.3-0.7-0.5-1.1-0.6V23.6z"/>
	</g>
</g>
</svg>
