<?xml version="1.0" encoding="utf-8"?>
<!-- Generator: Adobe Illustrator 26.0.1, SVG Export Plug-In . SVG Version: 6.00 Build 0)  -->
<svg version="1.1" xmlns="http://www.w3.org/2000/svg" xmlns:xlink="http://www.w3.org/1999/xlink" x="0px" y="0px"
	 viewBox="0 0 40 40" style="enable-background:new 0 0 40 40;" xml:space="preserve">
<style type="text/css">
	.st0{fill:#870AA0;}
	.st1{fill:#FFFFFF;}
</style>
<g id="Lager_1">
	<circle class="st0" cx="20" cy="20" r="19.3"/>
</g>
<g id="Lager_2">
	<g>
		<path class="st1" d="M8.4,17.4c0,0,4.2-1.6,7.5,0c3.3,1.6,4.5,5.9,4.5,5.9s-4.2,1.6-7.5,0C9.6,21.7,8.4,17.4,8.4,17.4z"/>
	</g>
	<g>
		<path class="st1" d="M32.3,17.3c0,0-4.2-1.6-7.5,0s-4.5,5.9-4.5,5.9s4.2,1.6,7.5,0C31.1,21.6,32.3,17.3,32.3,17.3z"/>
	</g>
	<g>
		<path class="st1" d="M20.4,10.2c0,0,2.8,2.3,2.8,5.1s-2.8,5.1-2.8,5.1s-2.8-2.3-2.8-5.1S20.4,10.2,20.4,10.2z"/>
	</g>
	<g>
		<line class="st1" x1="20.4" y1="18.8" x2="20.4" y2="29.1"/>
		<rect x="20.1" y="18.8" class="st1" width="0.5" height="10.3"/>
	</g>
</g>
</svg>
