<?xml version="1.0" encoding="utf-8"?>
<!-- Generator: Adobe Illustrator 26.0.1, SVG Export Plug-In . SVG Version: 6.00 Build 0)  -->
<svg version="1.1" id="Lager_1" xmlns="http://www.w3.org/2000/svg" xmlns:xlink="http://www.w3.org/1999/xlink" x="0px" y="0px"
	 viewBox="0 0 700 700" style="enable-background:new 0 0 700 700;" xml:space="preserve">
<style type="text/css">
	.st0{fill:#870AA0;}
</style>
<g>
	<path class="st0" d="M538.02,347.82c-0.43-6.9-3.16-13.47-7.75-18.64L251.31,19.22h0.01c-5.52-6.16-13.26-9.88-21.52-10.32
		c-8.26-0.44-16.35,2.42-22.5,7.95c-6.15,5.53-9.84,13.29-10.26,21.54c-0.42,8.26,2.47,16.34,8.02,22.47L465.37,350L205.06,639.13
		v0.01c-5.55,6.12-8.44,14.22-8.02,22.47c0.42,8.26,4.11,16.01,10.26,21.54c6.15,5.53,14.24,8.39,22.5,7.95
		c8.26-0.45,16-4.16,21.52-10.32l278.96-309.96h-0.01C535.87,364.53,538.67,356.22,538.02,347.82L538.02,347.82z"/>
</g>
</svg>
