<?xml version="1.0" encoding="utf-8"?>
<!-- Generator: Adobe Illustrator 26.0.1, SVG Export Plug-In . SVG Version: 6.00 Build 0)  -->
<svg version="1.1" id="Lager_1" xmlns="http://www.w3.org/2000/svg" xmlns:xlink="http://www.w3.org/1999/xlink" x="0px" y="0px"
	 viewBox="0 0 40 40" style="enable-background:new 0 0 40 40;" xml:space="preserve">
<style type="text/css">
	.st0{fill:#23C3FF;}
	.st1{fill:#FFFFFF;}
	.st2{fill:#870AA0;}
	.st3{fill:#2819FF;}
</style>
<g id="Lager_1_00000111189895720947560210000012522270526182038145_">
	<circle class="st0" cx="20" cy="20" r="19.46"/>
</g>
<g id="Lager_2_00000109018207824467045490000001227262691774917279_">
	<g>
		<path class="st1" d="M26.21,15.55c0.08-0.4,0.13-0.81,0.13-1.24c0-3.5-2.84-6.34-6.34-6.34s-6.34,2.84-6.34,6.34h2.89
			c0-1.9,1.54-3.45,3.45-3.45s3.45,1.54,3.45,3.45c0,0.44-0.09,0.85-0.24,1.24h0.01H26.21z"/>
		<path class="st2" d="M26.21,15.55h-2.99h-0.01c-0.5,1.29-1.74,2.21-3.21,2.21c1.53,0,2.93,0.54,4.03,1.44
			C25.13,18.29,25.92,17.01,26.21,15.55z"/>
		<path class="st3" d="M23.22,22.85L23.22,22.85c0.14,0.39,0.23,0.81,0.23,1.25c0,1.9-1.54,3.45-3.45,3.45S16.55,26,16.55,24.1
			h-2.89c0,3.5,2.84,6.34,6.34,6.34s6.34-2.84,6.34-6.34c0-0.43-0.05-0.84-0.13-1.25C26.21,22.85,23.22,22.85,23.22,22.85z"/>
		<path class="st2" d="M26.21,22.85c-0.29-1.46-1.08-2.74-2.18-3.65c-1.09,0.9-2.5,1.44-4.03,1.44c1.46,0,2.71,0.92,3.21,2.2h0.01
			L26.21,22.85L26.21,22.85z"/>
		<path class="st2" d="M20,17.76c-0.36,0-0.71,0.04-1.05,0.09v2.7c0.34,0.06,0.69,0.09,1.05,0.09c1.53,0,2.93-0.54,4.03-1.44
			C22.93,18.3,21.53,17.76,20,17.76z"/>
	</g>
</g>
</svg>
