<?xml version="1.0" encoding="utf-8"?>
<!-- Generator: Adobe Illustrator 26.0.1, SVG Export Plug-In . SVG Version: 6.00 Build 0)  -->
<svg version="1.1" id="Lager_1" xmlns="http://www.w3.org/2000/svg" xmlns:xlink="http://www.w3.org/1999/xlink" x="0px" y="0px"
	 viewBox="0 0 40 40" style="enable-background:new 0 0 40 40;" xml:space="preserve">
<style type="text/css">
	.st0{fill:#23C3FF;}
	.st1{fill:#FFFFFF;}
	.st2{fill:#870AA0;}
	.st3{fill:#2819FF;}
</style>
<g id="Lager_1_00000135681309482902710100000002423002206893590184_">
	<circle class="st0" cx="20" cy="20" r="19.46"/>
</g>
<g id="Lager_2_00000051363998725968354440000006456414467994060190_">
	<g>
		<path class="st1" d="M26.21,15.55c0.08-0.4,0.13-0.81,0.13-1.24c0-3.5-2.84-6.34-6.34-6.34s-6.34,2.84-6.34,6.34h2.89
			c0-1.9,1.54-3.45,3.45-3.45s3.45,1.54,3.45,3.45c0,0.44-0.09,0.85-0.24,1.24h0.01H26.21z"/>
		<path class="st2" d="M26.21,15.55h-2.99h-0.01c-0.18,0.47-0.46,0.89-0.82,1.23l2.65,1.32C25.6,17.36,26.02,16.5,26.21,15.55z"/>
	</g>
	
		<rect x="13.39" y="20.76" transform="matrix(0.5807 -0.8141 0.8141 0.5807 -9.5505 25.8593)" class="st2" width="13.87" height="2.88"/>
	<rect x="15.13" y="26.96" class="st3" width="11.21" height="2.88"/>
</g>
</svg>
