<?xml version="1.0" encoding="utf-8"?>
<!-- Generator: Adobe Illustrator 26.0.1, SVG Export Plug-In . SVG Version: 6.00 Build 0)  -->
<svg version="1.1" id="Lager_1" xmlns="http://www.w3.org/2000/svg" xmlns:xlink="http://www.w3.org/1999/xlink" x="0px" y="0px"
	 viewBox="0 0 700 90" style="enable-background:new 0 0 700 90;" xml:space="preserve">
<style type="text/css">
	.st0{stroke:#000000;stroke-width:4;stroke-miterlimit:10;}
</style>
<path class="st0" d="M69.2,43.2c7.8,0,13.9-10.3,14.4-18.4c0-0.3,0-0.5,0-0.9v-0.8C82.9,12.2,73.4,5.7,57.8,5.6L41.9,5.5h-9.4
	c-0.7,0-1.1,0.4-1.1,1.1V83c0,0.7,0.4,1.1,1.1,1.1l29.9,0.1c18.9,0.1,30.6-7.4,31.2-21.3c0-0.2,0-0.5,0-0.8v-1
	C92.9,50.7,86.2,43.2,69.2,43.2z M41.9,8.1l15.9,0.1C69.9,8.2,74,13.5,74.2,23v0.3c0.1,10.7-4.3,18.9-17.8,18.9H41.9V8.1z M62.4,81
	H41.9V44.8h14.5c18.6,0,26.5,5.1,26.7,16.9C83.2,74,77.7,81,62.4,81z"/>
<path class="st0" d="M162.8,81.8h-41.1V6.6c0-0.7-0.4-1.1-1.1-1.1h-8.3c-0.7,0-1.1,0.4-1.1,1.1V83c0,0.7,0.4,1.1,1.1,1.1h50.5
	c0.7,0,1.1-0.4,1.1-1.1v-0.1C163.9,82.2,163.4,81.8,162.8,81.8z"/>
<path class="st0" d="M667.4,81.8h-41.1V6.6c0-0.7-0.4-1.1-1.1-1.1h-8.3c-0.7,0-1.1,0.4-1.1,1.1V83c0,0.7,0.4,1.1,1.1,1.1h50.5
	c0.7,0,1.1-0.4,1.1-1.1v-0.1C668.5,82.2,668,81.8,667.4,81.8z"/>
<path class="st0" d="M209.2,3.7c-23.4,0-40.9,17.7-40.9,41.3s17.5,41.2,40.9,41.2c23.3,0,40.6-17.6,40.6-41.2
	C249.9,21.4,232.5,3.7,209.2,3.7z M209.2,83.4c-19.1-0.3-29.9-16.7-29.9-38.4c0-22.4,10.9-38.8,29.9-38.5
	c18.3,0.1,29,16.5,29.7,38.5C239.5,67.3,228.7,83.7,209.2,83.4z"/>
<path class="st0" d="M344.5,5.5h-8.8c-0.4,0-1,0.3-1.2,0.8l-25.2,63l-31.1-63c-0.1-0.4-0.7-0.8-1.1-0.8h-7.2h-0.1h-0.1h-0.4
	c-0.7,0-1.1,0.4-1.1,1.1V83c0,0.7,0.4,1.1,1.1,1.1h0.4c0.7,0,1.1-0.4,1.1-1.1V11.6l34.1,71.3c0.4,0.9,1.5,0.9,1.8-0.1l28.5-69.3V83
	c0,0.7,0.4,1.1,1.1,1.1h8.3c0.7,0,1.1-0.4,1.1-1.1V6.6C345.6,5.9,345.2,5.5,344.5,5.5z"/>
<path class="st0" d="M390.8,5.5h-21.5c-0.7,0-1.1,0.4-1.1,1.1V83c0,0.7,0.4,1.1,1.1,1.1h21.5c28.8,0,46.1-15,46.1-40.3
	C436.9,19.8,419.6,5.5,390.8,5.5z M390.9,81.1h-12.2V8l11.6,0.1c25,0.1,36.2,13.6,36.1,36.5C425.9,67.7,415,81.1,390.9,81.1z"/>
<path class="st0" d="M590.3,5.5H582c-0.7,0-1.1,0.4-1.1,1.1v36h-37.7c-1.2,0-2.3,0-3.5,0v-36c0-0.7-0.4-1.1-1.1-1.1h-8.3
	c-0.7,0-1.1,0.4-1.1,1.1v36.2c-11.9,0.4-22.9,1.3-32.8,3L479.1,6.3c-0.2-0.4-0.8-0.8-1.2-0.8h-1.4c-0.4,0-0.8,0.3-1.1,0.8l-2.4,5.6
	l-1.4,3.3l-28.9,67.4c-0.2,0.8,0.1,1.4,0.9,1.4h0.8c0.4,0,1-0.3,1.2-0.8c0,0,0.1-0.4,1.8-4.4c5.3-12.6,19.8-23.9,39.6-28.7
	l14.6,33.1c0.2,0.4,0.4,0.8,3.4,0.8s6.6,0,6.6,0c0.8,0,1.1-0.7,0.9-1.4l-15.1-34.7c9.6-1.7,20.3-2.5,31.9-2.9v37.9
	c0,0.7,0.4,1.1,1.1,1.1h8.3c0.7,0,1.1-0.4,1.1-1.1v-38c1.2,0,2.3,0,3.5,0H581V83c0,0.7,0.4,1.1,1.1,1.1h8.3c0.7,0,1.1-0.4,1.1-1.1
	V6.6C591.4,5.9,590.9,5.5,590.3,5.5z M452.3,66.9l20.5-48.7l13.1,29.9C471.9,51.8,460.5,57.7,452.3,66.9z"/>
</svg>
