<?xml version="1.0" encoding="UTF-8" standalone="no"?>
<svg
   xmlns:dc="http://purl.org/dc/elements/1.1/"
   xmlns:cc="http://creativecommons.org/ns#"
   xmlns:rdf="http://www.w3.org/1999/02/22-rdf-syntax-ns#"
   xmlns:svg="http://www.w3.org/2000/svg"
   xmlns="http://www.w3.org/2000/svg"
   viewBox="0 0 1806.2933 1378.64"
   height="1378.64"
   width="1806.2933"
   xml:space="preserve"
   id="svg2"
   version="1.1"><metadata
     id="metadata8"><rdf:RDF><cc:Work
         rdf:about=""><dc:format>image/svg+xml</dc:format><dc:type
           rdf:resource="http://purl.org/dc/dcmitype/StillImage" /></cc:Work></rdf:RDF></metadata><defs
     id="defs6" /><g
     transform="matrix(1.3333333,0,0,-1.3333333,0,1378.64)"
     id="g10"><g
       transform="scale(0.1)"
       id="g12"><path
         id="path14"
         style="fill:none;stroke:#040606;stroke-width:150.33599854;stroke-linecap:butt;stroke-linejoin:miter;stroke-miterlimit:10;stroke-dasharray:none;stroke-opacity:1"
         d="M 6189.11,7224.51 V 10264.6 H 75.4531 V 7224.51 H 3132.28 V 4184.38 h 3056.83 z" /><path
         id="path16"
         style="fill:none;stroke:#040606;stroke-width:150.33599854;stroke-linecap:butt;stroke-linejoin:miter;stroke-miterlimit:10;stroke-dasharray:none;stroke-opacity:1"
         d="M 52.0469,7201.1 1211.32,6088.64 h 1937.66" /><path
         id="path18"
         style="fill:none;stroke:#040606;stroke-width:150.33599854;stroke-linecap:butt;stroke-linejoin:miter;stroke-miterlimit:10;stroke-dasharray:none;stroke-opacity:1"
         d="M 3108.87,4160.24 4251.45,3081.92 h 1937.66" /><path
         id="path20"
         style="fill:none;stroke:#040606;stroke-width:150.33599854;stroke-linecap:butt;stroke-linejoin:miter;stroke-miterlimit:10;stroke-dasharray:none;stroke-opacity:1"
         d="M 6215.8,10281.9 7258.17,9362.62 V 7257.91" /><path
         id="path22"
         style="fill:none;stroke:#040606;stroke-width:150.33599854;stroke-linecap:butt;stroke-linejoin:miter;stroke-miterlimit:10;stroke-dasharray:none;stroke-opacity:1"
         d="M 6165.7,1057.44 7258.17,75.1992 H 13472 V 3081.92 L 12403,4150.98 H 9262.64 V 7224.51 H 6189.11 V 1077.44 h 3073.53 3073.56 v 3073.54" /><path
         id="path24"
         style="fill:none;stroke:#040606;stroke-width:150.33599854;stroke-linecap:butt;stroke-linejoin:miter;stroke-miterlimit:10;stroke-dasharray:none;stroke-opacity:1"
         d="M 9286.05,7244.51 10398.5,6088.64 V 4184.38" /><path
         id="path26"
         style="fill:#040606;fill-opacity:1;fill-rule:nonzero;stroke:none"
         d="m 1964.47,8260.16 h -160.91 l -413.71,1061.58 h 206.87 l 285.86,-807.31 285.86,807.31 H 2375.3 L 1964.47,8260.16" /><path
         id="path28"
         style="fill:#040606;fill-opacity:1;fill-rule:nonzero;stroke:none"
         d="m 4528.37,8260.16 v 1061.58 h 196.81 V 8260.16 h -196.81" /><path
         id="path30"
         style="fill:#040606;fill-opacity:1;fill-rule:nonzero;stroke:none"
         d="m 4298.51,5604.22 v 166.65 l 402.23,706.76 h -380.68 v 188.17 h 614.83 V 6489.11 L 4535.53,5792.4 h 426.65 v -188.18 h -663.67" /><path
         id="path32"
         style="fill:#040606;fill-opacity:1;fill-rule:nonzero;stroke:none"
         d="m 7814.8,4883.99 c -310.28,0 -558.81,247.07 -558.81,553.04 0,300.23 245.65,545.88 545.89,545.88 218.34,0 409.39,-117.78 502.78,-323.21 h -219.79 c -71.83,93.37 -155.15,133.6 -278.68,133.6 -202.56,0 -351.97,-158.02 -351.97,-357.7 0,-198.23 160.91,-361.99 356.27,-361.99 101.98,0 176.69,34.45 262.87,124.95 h 231.3 c -83.33,-193.92 -272.94,-314.57 -489.86,-314.57" /><path
         id="path34"
         style="fill:#040606;fill-opacity:1;fill-rule:nonzero;stroke:none"
         d="m 7770.26,3103.96 c -203.99,0 -359.13,-155.15 -359.13,-360.57 0,-201.12 158.01,-359.12 359.13,-359.12 201.12,0 350.51,153.7 350.51,357.68 0,203.99 -153.7,362.01 -350.51,362.01 z m 1.43,-909.3 c -311.71,0 -558.8,242.75 -558.8,548.73 0,310.29 244.2,550.18 560.24,550.18 303.1,0 545.89,-245.64 545.89,-548.75 0,-310.28 -238.46,-550.16 -547.33,-550.16" /><path
         id="path36"
         style="fill:#040606;fill-opacity:1;fill-rule:nonzero;stroke:none"
         d="m 10619.1,2213.31 -443.9,771.43 V 2213.31 H 9978.37 V 3274.9 h 224.13 l 439.5,-772.86 v 772.86 h 196.9 V 2213.31 h -219.8" /></g></g></svg>